<svg width="256" height="256" viewBox="0 0 256 256" xmlns="http://www.w3.org/2000/svg" role="img" aria-label="Git Terminal icon">
  <defs>
    <linearGradient id="bg" x1="34" y1="24" x2="222" y2="232" gradientUnits="userSpaceOnUse">
      <stop offset="0" stop-color="#0f172a"/>
      <stop offset="0.55" stop-color="#1d4ed8"/>
      <stop offset="1" stop-color="#7c3aed"/>
    </linearGradient>
    <linearGradient id="screen" x1="58" y1="68" x2="198" y2="188" gradientUnits="userSpaceOnUse">
      <stop offset="0" stop-color="#020617"/>
      <stop offset="1" stop-color="#111827"/>
    </linearGradient>
    <filter id="shadow" x="-20%" y="-20%" width="140%" height="140%">
      <feDropShadow dx="0" dy="16" stdDeviation="12" flood-color="#020617" flood-opacity="0.38"/>
    </filter>
  </defs>
  <rect x="18" y="18" width="220" height="220" rx="54" fill="url(#bg)" filter="url(#shadow)"/>
  <path d="M72 58h112c13.255 0 24 10.745 24 24v92c0 13.255-10.745 24-24 24H72c-13.255 0-24-10.745-24-24V82c0-13.255 10.745-24 24-24z" fill="url(#screen)" stroke="#93c5fd" stroke-width="5"/>
  <path d="M72 90l28 26-28 26" fill="none" stroke="#60a5fa" stroke-width="13" stroke-linecap="round" stroke-linejoin="round"/>
  <path d="M112 154h54" stroke="#e5e7eb" stroke-width="13" stroke-linecap="round"/>
  <circle cx="181" cy="78" r="9" fill="#10b981"/>
  <path d="M161 105l20 20 20-20" fill="none" stroke="#f97316" stroke-width="10" stroke-linecap="round" stroke-linejoin="round"/>
  <path d="M181 88v37" stroke="#f97316" stroke-width="10" stroke-linecap="round"/>
  <circle cx="181" cy="146" r="9" fill="#f97316"/>
  <path d="M181 155v17" stroke="#f97316" stroke-width="10" stroke-linecap="round"/>
  <circle cx="181" cy="184" r="7" fill="#f97316"/>
</svg>
